<mxfile host="Electron" modified="2023-11-17T08:02:42.398Z" agent="Mozilla/5.0 (Windows NT 10.0; Win64; x64) AppleWebKit/537.36 (KHTML, like Gecko) draw.io/22.0.2 Chrome/114.0.5735.289 Electron/25.8.4 Safari/537.36" etag="WA38rNJLdmuS5M_0kgYS" version="22.0.2" type="device">
  <diagram name="第 1 页" id="tYJrj_iemXC89VBd766L">
    <mxGraphModel dx="1418" dy="828" grid="1" gridSize="10" guides="1" tooltips="1" connect="1" arrows="1" fold="1" page="1" pageScale="1" pageWidth="827" pageHeight="1169" math="0" shadow="0">
      <root>
        <mxCell id="0" />
        <mxCell id="1" parent="0" />
        <mxCell id="aE1rWOKed9eXg0IM5InW-17" value="" style="rounded=1;whiteSpace=wrap;html=1;arcSize=6;" parent="1" vertex="1">
          <mxGeometry x="80" y="490" width="520" height="130" as="geometry" />
        </mxCell>
        <mxCell id="aE1rWOKed9eXg0IM5InW-1" value="" style="rounded=1;whiteSpace=wrap;html=1;arcSize=6;" parent="1" vertex="1">
          <mxGeometry x="80" y="160" width="520" height="310" as="geometry" />
        </mxCell>
        <mxCell id="aE1rWOKed9eXg0IM5InW-2" value="Google Cloud Platform" style="text;html=1;align=center;verticalAlign=middle;resizable=0;points=[];autosize=1;strokeColor=none;fillColor=none;fontSize=20;" parent="1" vertex="1">
          <mxGeometry x="80" y="160" width="230" height="40" as="geometry" />
        </mxCell>
        <mxCell id="aE1rWOKed9eXg0IM5InW-3" value="" style="rounded=1;whiteSpace=wrap;html=1;strokeColor=#7EA6E0;" parent="1" vertex="1">
          <mxGeometry x="90" y="200" width="220" height="140" as="geometry" />
        </mxCell>
        <mxCell id="aE1rWOKed9eXg0IM5InW-4" value="Cloud Run" style="text;html=1;align=center;verticalAlign=middle;resizable=0;points=[];autosize=1;strokeColor=none;fillColor=none;fontColor=#000000;" parent="1" vertex="1">
          <mxGeometry x="90" y="200" width="80" height="30" as="geometry" />
        </mxCell>
        <mxCell id="aE1rWOKed9eXg0IM5InW-5" value="" style="rounded=1;whiteSpace=wrap;html=1;" parent="1" vertex="1">
          <mxGeometry x="110" y="230" width="120" height="60" as="geometry" />
        </mxCell>
        <mxCell id="aE1rWOKed9eXg0IM5InW-6" value="" style="rounded=1;whiteSpace=wrap;html=1;" parent="1" vertex="1">
          <mxGeometry x="170" y="260" width="120" height="60" as="geometry" />
        </mxCell>
        <mxCell id="aE1rWOKed9eXg0IM5InW-7" value="Prod Container" style="text;html=1;align=center;verticalAlign=middle;resizable=0;points=[];autosize=1;strokeColor=none;fillColor=none;" parent="1" vertex="1">
          <mxGeometry x="110" y="230" width="100" height="30" as="geometry" />
        </mxCell>
        <mxCell id="aE1rWOKed9eXg0IM5InW-8" value="Dev Container" style="text;html=1;align=center;verticalAlign=middle;resizable=0;points=[];autosize=1;strokeColor=none;fillColor=none;" parent="1" vertex="1">
          <mxGeometry x="170" y="260" width="100" height="30" as="geometry" />
        </mxCell>
        <mxCell id="aE1rWOKed9eXg0IM5InW-9" value="Container Registry" style="rounded=1;whiteSpace=wrap;html=1;strokeColor=#7EA6E0;" parent="1" vertex="1">
          <mxGeometry x="400" y="200" width="160" height="40" as="geometry" />
        </mxCell>
        <mxCell id="aE1rWOKed9eXg0IM5InW-12" style="rounded=0;orthogonalLoop=1;jettySize=auto;html=1;exitX=0;exitY=0.5;exitDx=0;exitDy=0;endSize=3;startSize=3;" parent="1" source="aE1rWOKed9eXg0IM5InW-10" edge="1">
          <mxGeometry relative="1" as="geometry">
            <mxPoint x="310" y="280" as="targetPoint" />
          </mxGeometry>
        </mxCell>
        <mxCell id="aE1rWOKed9eXg0IM5InW-40" style="edgeStyle=orthogonalEdgeStyle;rounded=0;orthogonalLoop=1;jettySize=auto;html=1;exitX=0.5;exitY=0;exitDx=0;exitDy=0;entryX=0.5;entryY=1;entryDx=0;entryDy=0;endSize=3;" parent="1" source="aE1rWOKed9eXg0IM5InW-10" target="aE1rWOKed9eXg0IM5InW-9" edge="1">
          <mxGeometry relative="1" as="geometry" />
        </mxCell>
        <mxCell id="aE1rWOKed9eXg0IM5InW-10" value="Cloud Build" style="rounded=1;whiteSpace=wrap;html=1;strokeColor=#7EA6E0;" parent="1" vertex="1">
          <mxGeometry x="400" y="260" width="160" height="40" as="geometry" />
        </mxCell>
        <mxCell id="aE1rWOKed9eXg0IM5InW-13" style="edgeStyle=orthogonalEdgeStyle;rounded=0;orthogonalLoop=1;jettySize=auto;html=1;exitX=0.5;exitY=0;exitDx=0;exitDy=0;endSize=3;startSize=3;" parent="1" source="aE1rWOKed9eXg0IM5InW-11" target="aE1rWOKed9eXg0IM5InW-10" edge="1">
          <mxGeometry relative="1" as="geometry" />
        </mxCell>
        <mxCell id="aE1rWOKed9eXg0IM5InW-11" value="Cloud Build Triggers" style="rounded=1;whiteSpace=wrap;html=1;strokeColor=#7EA6E0;" parent="1" vertex="1">
          <mxGeometry x="400" y="320" width="160" height="40" as="geometry" />
        </mxCell>
        <mxCell id="aE1rWOKed9eXg0IM5InW-15" value="" style="shape=flexArrow;endArrow=classic;html=1;rounded=0;endWidth=28;endSize=11.67;width=15;fillColor=default;" parent="1" edge="1">
          <mxGeometry width="50" height="50" relative="1" as="geometry">
            <mxPoint x="480.16" y="520" as="sourcePoint" />
            <mxPoint x="479.66" y="380" as="targetPoint" />
            <Array as="points" />
          </mxGeometry>
        </mxCell>
        <mxCell id="aE1rWOKed9eXg0IM5InW-16" value="Github CI" style="text;html=1;align=center;verticalAlign=middle;resizable=0;points=[];autosize=1;strokeColor=none;fillColor=none;" parent="1" vertex="1">
          <mxGeometry x="490" y="420" width="70" height="30" as="geometry" />
        </mxCell>
        <mxCell id="aE1rWOKed9eXg0IM5InW-19" value="Local Development" style="text;html=1;align=center;verticalAlign=middle;resizable=0;points=[];autosize=1;strokeColor=none;fillColor=none;fontSize=20;" parent="1" vertex="1">
          <mxGeometry x="80" y="585" width="190" height="40" as="geometry" />
        </mxCell>
        <mxCell id="aE1rWOKed9eXg0IM5InW-24" style="rounded=0;orthogonalLoop=1;jettySize=auto;html=1;exitX=1.003;exitY=0.611;exitDx=0;exitDy=0;entryX=0;entryY=0.5;entryDx=0;entryDy=0;exitPerimeter=0;endSize=3;startSize=3;" parent="1" source="aE1rWOKed9eXg0IM5InW-20" target="aE1rWOKed9eXg0IM5InW-23" edge="1">
          <mxGeometry relative="1" as="geometry" />
        </mxCell>
        <mxCell id="aE1rWOKed9eXg0IM5InW-20" value="" style="rounded=1;whiteSpace=wrap;html=1;strokeColor=#7EA6E0;" parent="1" vertex="1">
          <mxGeometry x="90" y="500" width="220" height="90" as="geometry" />
        </mxCell>
        <mxCell id="aE1rWOKed9eXg0IM5InW-21" value="Docker" style="text;html=1;align=center;verticalAlign=middle;resizable=0;points=[];autosize=1;strokeColor=none;fillColor=none;" parent="1" vertex="1">
          <mxGeometry x="90" y="500" width="60" height="30" as="geometry" />
        </mxCell>
        <mxCell id="aE1rWOKed9eXg0IM5InW-33" style="edgeStyle=orthogonalEdgeStyle;rounded=0;orthogonalLoop=1;jettySize=auto;html=1;exitX=1;exitY=0.5;exitDx=0;exitDy=0;entryX=0.5;entryY=1;entryDx=0;entryDy=0;endSize=3;startSize=3;" parent="1" source="aE1rWOKed9eXg0IM5InW-22" target="aE1rWOKed9eXg0IM5InW-32" edge="1">
          <mxGeometry relative="1" as="geometry" />
        </mxCell>
        <mxCell id="aE1rWOKed9eXg0IM5InW-22" value="Django Web Container" style="rounded=1;whiteSpace=wrap;html=1;" parent="1" vertex="1">
          <mxGeometry x="97.5" y="535" width="142.5" height="45" as="geometry" />
        </mxCell>
        <mxCell id="aE1rWOKed9eXg0IM5InW-23" value="Github codebase" style="rounded=1;whiteSpace=wrap;html=1;strokeColor=#7EA6E0;" parent="1" vertex="1">
          <mxGeometry x="410" y="535" width="140" height="40" as="geometry" />
        </mxCell>
        <mxCell id="aE1rWOKed9eXg0IM5InW-35" style="edgeStyle=orthogonalEdgeStyle;rounded=0;orthogonalLoop=1;jettySize=auto;html=1;exitX=0.5;exitY=0;exitDx=0;exitDy=0;entryX=0.5;entryY=1;entryDx=0;entryDy=0;startArrow=classic;startFill=1;startSize=3;endSize=3;" parent="1" source="aE1rWOKed9eXg0IM5InW-25" target="aE1rWOKed9eXg0IM5InW-3" edge="1">
          <mxGeometry relative="1" as="geometry" />
        </mxCell>
        <mxCell id="aE1rWOKed9eXg0IM5InW-25" value="" style="rounded=1;whiteSpace=wrap;html=1;strokeColor=#7EA6E0;" parent="1" vertex="1">
          <mxGeometry x="90" y="360" width="220" height="100" as="geometry" />
        </mxCell>
        <mxCell id="aE1rWOKed9eXg0IM5InW-26" value="Cloud Memorystore (Redis)" style="text;html=1;align=center;verticalAlign=middle;resizable=0;points=[];autosize=1;strokeColor=none;fillColor=none;" parent="1" vertex="1">
          <mxGeometry x="85" y="360" width="170" height="30" as="geometry" />
        </mxCell>
        <mxCell id="aE1rWOKed9eXg0IM5InW-27" value="" style="rounded=1;whiteSpace=wrap;html=1;" parent="1" vertex="1">
          <mxGeometry x="100" y="390" width="125" height="40" as="geometry" />
        </mxCell>
        <mxCell id="aE1rWOKed9eXg0IM5InW-29" value="Prod Redis Instance" style="text;html=1;align=center;verticalAlign=middle;resizable=0;points=[];autosize=1;strokeColor=none;fillColor=none;" parent="1" vertex="1">
          <mxGeometry x="93" y="387" width="130" height="30" as="geometry" />
        </mxCell>
        <mxCell id="aE1rWOKed9eXg0IM5InW-30" value="" style="rounded=1;whiteSpace=wrap;html=1;" parent="1" vertex="1">
          <mxGeometry x="167.5" y="413" width="125" height="40" as="geometry" />
        </mxCell>
        <mxCell id="aE1rWOKed9eXg0IM5InW-31" value="Dev Redis Instance" style="text;html=1;align=center;verticalAlign=middle;resizable=0;points=[];autosize=1;strokeColor=none;fillColor=none;" parent="1" vertex="1">
          <mxGeometry x="162.5" y="410" width="130" height="30" as="geometry" />
        </mxCell>
        <mxCell id="aE1rWOKed9eXg0IM5InW-34" style="rounded=0;orthogonalLoop=1;jettySize=auto;html=1;exitX=0.5;exitY=0;exitDx=0;exitDy=0;entryX=0.5;entryY=1;entryDx=0;entryDy=0;endSize=3;startSize=3;" parent="1" source="aE1rWOKed9eXg0IM5InW-32" target="aE1rWOKed9eXg0IM5InW-25" edge="1">
          <mxGeometry relative="1" as="geometry">
            <mxPoint x="258" y="460" as="targetPoint" />
          </mxGeometry>
        </mxCell>
        <mxCell id="aE1rWOKed9eXg0IM5InW-32" value="GCP Proxy" style="rounded=1;whiteSpace=wrap;html=1;" parent="1" vertex="1">
          <mxGeometry x="222.5" y="507.5" width="70" height="22.5" as="geometry" />
        </mxCell>
      </root>
    </mxGraphModel>
  </diagram>
</mxfile>
